
      <svg
        width="300"
        height="165"
        viewBox="0 0 300 165"
        fill="none"
        xmlns="http://www.w3.org/2000/svg"
        role="img"
        aria-labelledby="descId"
      >
        <title id="titleId"></title>
        <desc id="descId"></desc>
        <style>
          .header {
            font: 600 18px 'Segoe UI', Ubuntu, Sans-Serif;
            fill: #2f80ed;
            animation: fadeInAnimation 0.8s ease-in-out forwards;
          }
          @supports(-moz-appearance: auto) {
            /* Selector detects Firefox */
            .header { font-size: 15.5px; }
          }
          
    .lang-name {
      font: 400 11px 'Segoe UI', Ubuntu, Sans-Serif; fill: #434d58;
    }
    .stagger {
      opacity: 0;
      animation: fadeInAnimation 0.3s ease-in-out forwards;
    }
    .lang-progress {
      animation: growWidthAnimation 0.6s ease-in-out forwards;
    }
    @keyframes progressAnimation {
      from {
        width: 0;
      }
    }
    @keyframes growWidthAnimation {
      from {
        width: 0;
      }
      to {
        width: 100%;
      }
    }
    @keyframes fadeInAnimation {
      from {
        opacity: 0;
      }
      to {
        opacity: 1;
      }
    }
  

          
      /* Animations */
      @keyframes scaleInAnimation {
        from {
          transform: translate(-5px, 5px) scale(0);
        }
        to {
          transform: translate(-5px, 5px) scale(1);
        }
      }
      @keyframes fadeInAnimation {
        from {
          opacity: 0;
        }
        to {
          opacity: 1;
        }
      }
    
          
        </style>

        

        <rect
          data-testid="card-bg"
          x="0.5"
          y="0.5"
          rx="4.5"
          height="99%"
          stroke="#e4e2e2"
          width="299"
          fill="#fffefe"
          stroke-opacity="1.0"
        />

        
      <g
        data-testid="card-title"
        transform="translate(25, 35)"
      >
        <g transform="translate(0, 0)">
      <text
        x="0"
        y="0"
        class="header"
        data-testid="header"
      >Most Used Languages</text>
    </g>
      </g>
    

        <g
          data-testid="main-card-body"
          transform="translate(0, 55)"
        >
          
    <svg data-testid="lang-items" x="25">
      
      <g transform="translate(0, 0)">
        <circle cx="5" cy="6" r="5" fill="#178600" />
        <text x="15" y="10" class="lang-name">C#</text>
        <text x="255" y="10" class="lang-name" data-testid="lang-name">55.0%</text>
        
    <svg width="255" x="0" y="0">
      <rect rx="5" ry="5" x="0" y="0" width="255" height="8" fill="#ddd"></rect>
      <svg data-testid="lang-progress" width="55.03%">
        <rect
            height="8"
            fill="#178600"
            rx="5" ry="5" x="0" y="0"
            class="lang-progress"
            style="animation-delay: 0ms;"
        />
      </svg>
    </svg>
  
      </g>
    
      <g transform="translate(0, 25)">
        <circle cx="5" cy="6" r="5" fill="#3572A5" />
        <text x="15" y="10" class="lang-name">Python</text>
        <text x="255" y="10" class="lang-name" data-testid="lang-name">19.7%</text>
        
    <svg width="255" x="0" y="0">
      <rect rx="5" ry="5" x="0" y="0" width="255" height="8" fill="#ddd"></rect>
      <svg data-testid="lang-progress" width="19.69%">
        <rect
            height="8"
            fill="#3572A5"
            rx="5" ry="5" x="0" y="0"
            class="lang-progress"
            style="animation-delay: 100ms;"
        />
      </svg>
    </svg>
  
      </g>
    
      <g transform="translate(0, 50)">
        <circle cx="5" cy="6" r="5" fill="#89e051" />
        <text x="15" y="10" class="lang-name">Shell</text>
        <text x="255" y="10" class="lang-name" data-testid="lang-name">14.3%</text>
        
    <svg width="255" x="0" y="0">
      <rect rx="5" ry="5" x="0" y="0" width="255" height="8" fill="#ddd"></rect>
      <svg data-testid="lang-progress" width="14.34%">
        <rect
            height="8"
            fill="#89e051"
            rx="5" ry="5" x="0" y="0"
            class="lang-progress"
            style="animation-delay: 200ms;"
        />
      </svg>
    </svg>
  
      </g>
    
      <g transform="translate(0, 75)">
        <circle cx="5" cy="6" r="5" fill="#f34b7d" />
        <text x="15" y="10" class="lang-name">C++</text>
        <text x="255" y="10" class="lang-name" data-testid="lang-name">5.2%</text>
        
    <svg width="255" x="0" y="0">
      <rect rx="5" ry="5" x="0" y="0" width="255" height="8" fill="#ddd"></rect>
      <svg data-testid="lang-progress" width="5.22%">
        <rect
            height="8"
            fill="#f34b7d"
            rx="5" ry="5" x="0" y="0"
            class="lang-progress"
            style="animation-delay: 300ms;"
        />
      </svg>
    </svg>
  
      </g>
    
      <g transform="translate(0, 100)">
        <circle cx="5" cy="6" r="5" fill="#44a51c" />
        <text x="15" y="10" class="lang-name">QML</text>
        <text x="255" y="10" class="lang-name" data-testid="lang-name">3.3%</text>
        
    <svg width="255" x="0" y="0">
      <rect rx="5" ry="5" x="0" y="0" width="255" height="8" fill="#ddd"></rect>
      <svg data-testid="lang-progress" width="3.28%">
        <rect
            height="8"
            fill="#44a51c"
            rx="5" ry="5" x="0" y="0"
            class="lang-progress"
            style="animation-delay: 400ms;"
        />
      </svg>
    </svg>
  
      </g>
    
      <g transform="translate(0, 125)">
        <circle cx="5" cy="6" r="5" fill="#A97BFF" />
        <text x="15" y="10" class="lang-name">Kotlin</text>
        <text x="255" y="10" class="lang-name" data-testid="lang-name">2.4%</text>
        
    <svg width="255" x="0" y="0">
      <rect rx="5" ry="5" x="0" y="0" width="255" height="8" fill="#ddd"></rect>
      <svg data-testid="lang-progress" width="2.44%">
        <rect
            height="8"
            fill="#A97BFF"
            rx="5" ry="5" x="0" y="0"
            class="lang-progress"
            style="animation-delay: 500ms;"
        />
      </svg>
    </svg>
  
      </g>
    
    </svg>
  
        </g>
      </svg>
    